
<global>
amp_veltrack=0
ampeg_attack=0.001
ampeg_release=1.5
</global>

<group>
group_label=RR2
seq_length=4
seq_position=1

<region>
hivel=103
key=G3
lovel=78
offset=4227
sample=Tenors_Solo_Drum_1_HotRods_Hit_F_D4_RR2.opus
</region>

<region>
hivel=127
key=G3
lovel=104
offset=1829
sample=Tenors_Solo_Drum_1_HotRods_Hit_FF_D4_RR2.opus
</region>

<region>
hivel=77
key=G3
lovel=52
offset=5386
sample=Tenors_Solo_Drum_1_HotRods_Hit_MF_D4_RR2.opus
</region>

<region>
hivel=51
key=G3
lovel=26
offset=4730
sample=Tenors_Solo_Drum_1_HotRods_Hit_MP_D4_RR2.opus
</region>

<region>
hivel=25
key=G3
lovel=0
offset=4903
sample=Tenors_Solo_Drum_1_HotRods_Hit_P_D4_RR2.opus
</region>

<region>
hivel=103
key=F#3
lovel=78
offset=3470
sample=Tenors_Solo_Drum_2_HotRods_Hit_F_D4_RR2.opus
</region>

<region>
hivel=127
key=F#3
lovel=104
offset=581
sample=Tenors_Solo_Drum_2_HotRods_Hit_FF_D4_RR2.opus
</region>

<region>
hivel=77
key=F#3
lovel=52
offset=4915
sample=Tenors_Solo_Drum_2_HotRods_Hit_MF_D4_RR2.opus
</region>

<region>
hivel=51
key=F#3
lovel=26
offset=5069
sample=Tenors_Solo_Drum_2_HotRods_Hit_MP_D4_RR2.opus
</region>

<region>
hivel=25
key=F#3
lovel=0
offset=2096
sample=Tenors_Solo_Drum_2_HotRods_Hit_P_D4_RR2.opus
</region>

<region>
hivel=103
key=F3
lovel=78
offset=4446
sample=Tenors_Solo_Drum_3_HotRods_Hit_F_D4_RR2.opus
</region>

<region>
hivel=127
key=F3
lovel=104
offset=712
sample=Tenors_Solo_Drum_3_HotRods_Hit_FF_D4_RR2.opus
</region>

<region>
hivel=77
key=F3
lovel=52
offset=4420
sample=Tenors_Solo_Drum_3_HotRods_Hit_MF_D4_RR2.opus
</region>

<region>
hivel=51
key=F3
lovel=26
offset=4436
sample=Tenors_Solo_Drum_3_HotRods_Hit_MP_D4_RR2.opus
</region>

<region>
hivel=25
key=F3
lovel=0
offset=4153
sample=Tenors_Solo_Drum_3_HotRods_Hit_P_D4_RR2.opus
</region>

<region>
hivel=103
key=E3
lovel=78
offset=3241
sample=Tenors_Solo_Drum_4_HotRods_Hit_F_D4_RR2.opus
</region>

<region>
hivel=127
key=E3
lovel=104
offset=3520
sample=Tenors_Solo_Drum_4_HotRods_Hit_FF_D4_RR2.opus
</region>

<region>
hivel=77
key=E3
lovel=52
offset=3989
sample=Tenors_Solo_Drum_4_HotRods_Hit_MF_D4_RR2.opus
</region>

<region>
hivel=51
key=E3
lovel=26
offset=4710
sample=Tenors_Solo_Drum_4_HotRods_Hit_MP_D4_RR2.opus
</region>

<region>
hivel=25
key=E3
lovel=0
offset=4114
sample=Tenors_Solo_Drum_4_HotRods_Hit_P_D4_RR2.opus
</region>

<region>
hivel=103
key=D#3
lovel=78
offset=4433
sample=Tenors_Solo_Drum_5_HotRods_Hit_F_D4_RR2.opus
</region>

<region>
hivel=127
key=D#3
lovel=104
offset=4064
sample=Tenors_Solo_Drum_5_HotRods_Hit_FF_D4_RR2.opus
</region>

<region>
hivel=77
key=D#3
lovel=52
offset=4677
sample=Tenors_Solo_Drum_5_HotRods_Hit_MF_D4_RR2.opus
</region>

<region>
hivel=51
key=D#3
lovel=26
offset=3417
sample=Tenors_Solo_Drum_5_HotRods_Hit_MP_D4_RR2.opus
</region>

<region>
hivel=25
key=D#3
lovel=0
offset=6095
sample=Tenors_Solo_Drum_5_HotRods_Hit_P_D4_RR2.opus
</region>

<region>
hivel=103
key=D3
lovel=78
offset=3831
sample=Tenors_Solo_Drum_6_HotRods_Hit_F_D4_RR2.opus
</region>

<region>
hivel=127
key=D3
lovel=104
offset=1876
sample=Tenors_Solo_Drum_6_HotRods_Hit_FF_D4_RR2.opus
</region>

<region>
hivel=77
key=D3
lovel=52
offset=3469
sample=Tenors_Solo_Drum_6_HotRods_Hit_MF_D4_RR2.opus
</region>

<region>
hivel=51
key=D3
lovel=26
offset=3327
sample=Tenors_Solo_Drum_6_HotRods_Hit_MP_D4_RR2.opus
</region>

<region>
hivel=25
key=D3
lovel=0
offset=5909
sample=Tenors_Solo_Drum_6_HotRods_Hit_P_D4_RR2.opus
</region>
</group>

<group>
group_label=RR4
seq_length=4
seq_position=2

<region>
hivel=103
key=G3
lovel=78
offset=5390
sample=Tenors_Solo_Drum_1_HotRods_Hit_F_D4_RR4.opus
</region>

<region>
hivel=127
key=G3
lovel=104
offset=4420
sample=Tenors_Solo_Drum_1_HotRods_Hit_FF_D4_RR4.opus
</region>

<region>
hivel=77
key=G3
lovel=52
offset=5748
sample=Tenors_Solo_Drum_1_HotRods_Hit_MF_D4_RR4.opus
</region>

<region>
hivel=51
key=G3
lovel=26
offset=4514
sample=Tenors_Solo_Drum_1_HotRods_Hit_MP_D4_RR4.opus
</region>

<region>
hivel=25
key=G3
lovel=0
offset=5308
sample=Tenors_Solo_Drum_1_HotRods_Hit_P_D4_RR4.opus
</region>

<region>
hivel=103
key=F#3
lovel=78
offset=3869
sample=Tenors_Solo_Drum_2_HotRods_Hit_F_D4_RR4.opus
</region>

<region>
hivel=127
key=F#3
lovel=104
offset=3454
sample=Tenors_Solo_Drum_2_HotRods_Hit_FF_D4_RR4.opus
</region>

<region>
hivel=77
key=F#3
lovel=52
offset=3460
sample=Tenors_Solo_Drum_2_HotRods_Hit_MF_D4_RR4.opus
</region>

<region>
hivel=51
key=F#3
lovel=26
offset=5549
sample=Tenors_Solo_Drum_2_HotRods_Hit_MP_D4_RR4.opus
</region>

<region>
hivel=25
key=F#3
lovel=0
offset=1915
sample=Tenors_Solo_Drum_2_HotRods_Hit_P_D4_RR4.opus
</region>

<region>
hivel=103
key=F3
lovel=78
offset=4938
sample=Tenors_Solo_Drum_3_HotRods_Hit_F_D4_RR4.opus
</region>

<region>
hivel=127
key=F3
lovel=104
offset=628
sample=Tenors_Solo_Drum_3_HotRods_Hit_FF_D4_RR4.opus
</region>

<region>
hivel=77
key=F3
lovel=52
offset=4445
sample=Tenors_Solo_Drum_3_HotRods_Hit_MF_D4_RR4.opus
</region>

<region>
hivel=51
key=F3
lovel=26
offset=4709
sample=Tenors_Solo_Drum_3_HotRods_Hit_MP_D4_RR4.opus
</region>

<region>
hivel=25
key=F3
lovel=0
offset=4945
sample=Tenors_Solo_Drum_3_HotRods_Hit_P_D4_RR4.opus
</region>

<region>
hivel=103
key=E3
lovel=78
offset=3028
sample=Tenors_Solo_Drum_4_HotRods_Hit_F_D4_RR4.opus
</region>

<region>
hivel=127
key=E3
lovel=104
offset=708
sample=Tenors_Solo_Drum_4_HotRods_Hit_FF_D4_RR4.opus
</region>

<region>
hivel=77
key=E3
lovel=52
offset=2777
sample=Tenors_Solo_Drum_4_HotRods_Hit_MF_D4_RR4.opus
</region>

<region>
hivel=51
key=E3
lovel=26
offset=4924
sample=Tenors_Solo_Drum_4_HotRods_Hit_MP_D4_RR4.opus
</region>

<region>
hivel=25
key=E3
lovel=0
offset=4090
sample=Tenors_Solo_Drum_4_HotRods_Hit_P_D4_RR4.opus
</region>

<region>
hivel=103
key=D#3
lovel=78
offset=4468
sample=Tenors_Solo_Drum_5_HotRods_Hit_F_D4_RR4.opus
</region>

<region>
hivel=127
key=D#3
lovel=104
offset=1117
sample=Tenors_Solo_Drum_5_HotRods_Hit_FF_D4_RR4.opus
</region>

<region>
hivel=77
key=D#3
lovel=52
offset=4800
sample=Tenors_Solo_Drum_5_HotRods_Hit_MF_D4_RR4.opus
</region>

<region>
hivel=51
key=D#3
lovel=26
offset=4122
sample=Tenors_Solo_Drum_5_HotRods_Hit_MP_D4_RR4.opus
</region>

<region>
hivel=25
key=D#3
lovel=0
offset=4742
sample=Tenors_Solo_Drum_5_HotRods_Hit_P_D4_RR4.opus
</region>

<region>
hivel=103
key=D3
lovel=78
offset=4347
sample=Tenors_Solo_Drum_6_HotRods_Hit_F_D4_RR4.opus
</region>

<region>
hivel=127
key=D3
lovel=104
offset=603
sample=Tenors_Solo_Drum_6_HotRods_Hit_FF_D4_RR4.opus
</region>

<region>
hivel=77
key=D3
lovel=52
offset=4682
sample=Tenors_Solo_Drum_6_HotRods_Hit_MF_D4_RR4.opus
</region>

<region>
hivel=51
key=D3
lovel=26
offset=2029
sample=Tenors_Solo_Drum_6_HotRods_Hit_MP_D4_RR4.opus
</region>

<region>
hivel=25
key=D3
lovel=0
offset=5512
sample=Tenors_Solo_Drum_6_HotRods_Hit_P_D4_RR4.opus
</region>
</group>

<group>
group_label=RR6
seq_length=4
seq_position=3

<region>
hivel=103
key=G3
lovel=78
offset=4788
sample=Tenors_Solo_Drum_1_HotRods_Hit_F_D4_RR6.opus
</region>

<region>
hivel=127
key=G3
lovel=104
offset=4535
sample=Tenors_Solo_Drum_1_HotRods_Hit_FF_D4_RR6.opus
</region>

<region>
hivel=77
key=G3
lovel=52
offset=6500
sample=Tenors_Solo_Drum_1_HotRods_Hit_MF_D4_RR6.opus
</region>

<region>
hivel=51
key=G3
lovel=26
offset=4191
sample=Tenors_Solo_Drum_1_HotRods_Hit_MP_D4_RR6.opus
</region>

<region>
hivel=25
key=G3
lovel=0
offset=4347
sample=Tenors_Solo_Drum_1_HotRods_Hit_P_D4_RR6.opus
</region>

<region>
hivel=103
key=F#3
lovel=78
offset=4666
sample=Tenors_Solo_Drum_2_HotRods_Hit_F_D4_RR6.opus
</region>

<region>
hivel=127
key=F#3
lovel=104
offset=3467
sample=Tenors_Solo_Drum_2_HotRods_Hit_FF_D4_RR6.opus
</region>

<region>
hivel=77
key=F#3
lovel=52
offset=4076
sample=Tenors_Solo_Drum_2_HotRods_Hit_MF_D4_RR6.opus
</region>

<region>
hivel=51
key=F#3
lovel=26
offset=6355
sample=Tenors_Solo_Drum_2_HotRods_Hit_MP_D4_RR6.opus
</region>

<region>
hivel=25
key=F#3
lovel=0
offset=2642
sample=Tenors_Solo_Drum_2_HotRods_Hit_P_D4_RR6.opus
</region>

<region>
hivel=103
key=F3
lovel=78
offset=4231
sample=Tenors_Solo_Drum_3_HotRods_Hit_F_D4_RR6.opus
</region>

<region>
hivel=127
key=F3
lovel=104
offset=697
sample=Tenors_Solo_Drum_3_HotRods_Hit_FF_D4_RR6.opus
</region>

<region>
hivel=77
key=F3
lovel=52
offset=4680
sample=Tenors_Solo_Drum_3_HotRods_Hit_MF_D4_RR6.opus
</region>

<region>
hivel=51
key=F3
lovel=26
offset=3741
sample=Tenors_Solo_Drum_3_HotRods_Hit_MP_D4_RR6.opus
</region>

<region>
hivel=25
key=F3
lovel=0
offset=4721
sample=Tenors_Solo_Drum_3_HotRods_Hit_P_D4_RR6.opus
</region>

<region>
hivel=103
key=E3
lovel=78
offset=3453
sample=Tenors_Solo_Drum_4_HotRods_Hit_F_D4_RR6.opus
</region>

<region>
hivel=127
key=E3
lovel=104
offset=3388
sample=Tenors_Solo_Drum_4_HotRods_Hit_FF_D4_RR6.opus
</region>

<region>
hivel=77
key=E3
lovel=52
offset=4354
sample=Tenors_Solo_Drum_4_HotRods_Hit_MF_D4_RR6.opus
</region>

<region>
hivel=51
key=E3
lovel=26
offset=4733
sample=Tenors_Solo_Drum_4_HotRods_Hit_MP_D4_RR6.opus
</region>

<region>
hivel=25
key=E3
lovel=0
offset=4646
sample=Tenors_Solo_Drum_4_HotRods_Hit_P_D4_RR6.opus
</region>

<region>
hivel=103
key=D#3
lovel=78
offset=4427
sample=Tenors_Solo_Drum_5_HotRods_Hit_F_D4_RR6.opus
</region>

<region>
hivel=127
key=D#3
lovel=104
offset=700
sample=Tenors_Solo_Drum_5_HotRods_Hit_FF_D4_RR6.opus
</region>

<region>
hivel=77
key=D#3
lovel=52
offset=5320
sample=Tenors_Solo_Drum_5_HotRods_Hit_MF_D4_RR6.opus
</region>

<region>
hivel=51
key=D#3
lovel=26
offset=4146
sample=Tenors_Solo_Drum_5_HotRods_Hit_MP_D4_RR6.opus
</region>

<region>
hivel=25
key=D#3
lovel=0
offset=5182
sample=Tenors_Solo_Drum_5_HotRods_Hit_P_D4_RR6.opus
</region>

<region>
hivel=103
key=D3
lovel=78
offset=4376
sample=Tenors_Solo_Drum_6_HotRods_Hit_F_D4_RR6.opus
</region>

<region>
hivel=127
key=D3
lovel=104
offset=743
sample=Tenors_Solo_Drum_6_HotRods_Hit_FF_D4_RR6.opus
</region>

<region>
hivel=77
key=D3
lovel=52
offset=4352
sample=Tenors_Solo_Drum_6_HotRods_Hit_MF_D4_RR6.opus
</region>

<region>
hivel=51
key=D3
lovel=26
offset=3472
sample=Tenors_Solo_Drum_6_HotRods_Hit_MP_D4_RR6.opus
</region>

<region>
hivel=25
key=D3
lovel=0
offset=7228
sample=Tenors_Solo_Drum_6_HotRods_Hit_P_D4_RR6.opus
</region>
</group>

<group>
group_label=RR8
seq_length=4
seq_position=4

<region>
hivel=103
key=G3
lovel=78
offset=4961
sample=Tenors_Solo_Drum_1_HotRods_Hit_F_D4_RR8.opus
</region>

<region>
hivel=127
key=G3
lovel=104
offset=5177
sample=Tenors_Solo_Drum_1_HotRods_Hit_FF_D4_RR8.opus
</region>

<region>
hivel=77
key=G3
lovel=52
offset=5166
sample=Tenors_Solo_Drum_1_HotRods_Hit_MF_D4_RR8.opus
</region>

<region>
hivel=51
key=G3
lovel=26
offset=5078
sample=Tenors_Solo_Drum_1_HotRods_Hit_MP_D4_RR8.opus
</region>

<region>
hivel=25
key=G3
lovel=0
offset=4607
sample=Tenors_Solo_Drum_1_HotRods_Hit_P_D4_RR8.opus
</region>

<region>
hivel=103
key=F#3
lovel=78
offset=4275
sample=Tenors_Solo_Drum_2_HotRods_Hit_F_D4_RR8.opus
</region>

<region>
hivel=127
key=F#3
lovel=104
offset=695
sample=Tenors_Solo_Drum_2_HotRods_Hit_FF_D4_RR8.opus
</region>

<region>
hivel=77
key=F#3
lovel=52
offset=4683
sample=Tenors_Solo_Drum_2_HotRods_Hit_MF_D4_RR8.opus
</region>

<region>
hivel=51
key=F#3
lovel=26
offset=5404
sample=Tenors_Solo_Drum_2_HotRods_Hit_MP_D4_RR8.opus
</region>

<region>
hivel=25
key=F#3
lovel=0
offset=3463
sample=Tenors_Solo_Drum_2_HotRods_Hit_P_D4_RR8.opus
</region>

<region>
hivel=103
key=F3
lovel=78
offset=3955
sample=Tenors_Solo_Drum_3_HotRods_Hit_F_D4_RR8.opus
</region>

<region>
hivel=127
key=F3
lovel=104
offset=3596
sample=Tenors_Solo_Drum_3_HotRods_Hit_FF_D4_RR8.opus
</region>

<region>
hivel=77
key=F3
lovel=52
offset=4530
sample=Tenors_Solo_Drum_3_HotRods_Hit_MF_D4_RR8.opus
</region>

<region>
hivel=51
key=F3
lovel=26
offset=3605
sample=Tenors_Solo_Drum_3_HotRods_Hit_MP_D4_RR8.opus
</region>

<region>
hivel=25
key=F3
lovel=0
offset=5546
sample=Tenors_Solo_Drum_3_HotRods_Hit_P_D4_RR8.opus
</region>

<region>
hivel=103
key=E3
lovel=78
offset=4100
sample=Tenors_Solo_Drum_4_HotRods_Hit_F_D4_RR8.opus
</region>

<region>
hivel=127
key=E3
lovel=104
offset=714
sample=Tenors_Solo_Drum_4_HotRods_Hit_FF_D4_RR8.opus
</region>

<region>
hivel=77
key=E3
lovel=52
offset=4123
sample=Tenors_Solo_Drum_4_HotRods_Hit_MF_D4_RR8.opus
</region>

<region>
hivel=51
key=E3
lovel=26
offset=5066
sample=Tenors_Solo_Drum_4_HotRods_Hit_MP_D4_RR8.opus
</region>

<region>
hivel=25
key=E3
lovel=0
offset=5250
sample=Tenors_Solo_Drum_4_HotRods_Hit_P_D4_RR8.opus
</region>

<region>
hivel=103
key=D#3
lovel=78
offset=4542
sample=Tenors_Solo_Drum_5_HotRods_Hit_F_D4_RR8.opus
</region>

<region>
hivel=127
key=D#3
lovel=104
offset=4782
sample=Tenors_Solo_Drum_5_HotRods_Hit_FF_D4_RR8.opus
</region>

<region>
hivel=77
key=D#3
lovel=52
offset=4342
sample=Tenors_Solo_Drum_5_HotRods_Hit_MF_D4_RR8.opus
</region>

<region>
hivel=51
key=D#3
lovel=26
offset=4554
sample=Tenors_Solo_Drum_5_HotRods_Hit_MP_D4_RR8.opus
</region>

<region>
hivel=25
key=D#3
lovel=0
offset=6163
sample=Tenors_Solo_Drum_5_HotRods_Hit_P_D4_RR8.opus
</region>

<region>
hivel=103
key=D3
lovel=78
offset=4458
sample=Tenors_Solo_Drum_6_HotRods_Hit_F_D4_RR8.opus
</region>

<region>
hivel=127
key=D3
lovel=104
offset=619
sample=Tenors_Solo_Drum_6_HotRods_Hit_FF_D4_RR8.opus
</region>

<region>
hivel=77
key=D3
lovel=52
offset=3843
sample=Tenors_Solo_Drum_6_HotRods_Hit_MF_D4_RR8.opus
</region>

<region>
hivel=51
key=D3
lovel=26
offset=3077
sample=Tenors_Solo_Drum_6_HotRods_Hit_MP_D4_RR8.opus
</region>

<region>
hivel=25
key=D3
lovel=0
offset=5696
sample=Tenors_Solo_Drum_6_HotRods_Hit_P_D4_RR8.opus
</region>
</group>

<group>
color=green
group_label=Alt_Hits_RR2
seq_length=2
seq_position=1

<region>
hivel=103
key=G4
lovel=78
offset=5202
sample=Tenors_Solo_Drum_1_HotRods_Muted_Hit_F_D4_RR2.opus
</region>

<region>
hivel=127
key=G4
lovel=104
offset=5586
sample=Tenors_Solo_Drum_1_HotRods_Muted_Hit_FF_D4_RR2.opus
</region>

<region>
hivel=77
key=G4
lovel=52
offset=5376
sample=Tenors_Solo_Drum_1_HotRods_Muted_Hit_MF_D4_RR2.opus
</region>

<region>
hivel=51
key=G4
lovel=26
offset=4796
sample=Tenors_Solo_Drum_1_HotRods_Muted_Hit_MP_D4_RR2.opus
</region>

<region>
hivel=25
key=G4
lovel=0
offset=5443
sample=Tenors_Solo_Drum_1_HotRods_Muted_Hit_P_D4_RR2.opus
</region>

<region>
hivel=103
key=G5
lovel=78
offset=5045
sample=Tenors_Solo_Drum_1_HotRods_Rim_Hit_F_D4_RR2.opus
</region>

<region>
hivel=127
key=G5
lovel=104
offset=5020
sample=Tenors_Solo_Drum_1_HotRods_Rim_Hit_FF_D4_RR2.opus
</region>

<region>
hivel=77
key=G5
lovel=52
offset=5620
sample=Tenors_Solo_Drum_1_HotRods_Rim_Hit_MF_D4_RR2.opus
</region>

<region>
hivel=51
key=G5
lovel=26
offset=4567
sample=Tenors_Solo_Drum_1_HotRods_Rim_Hit_MP_D4_RR2.opus
</region>

<region>
hivel=25
key=G5
lovel=0
offset=3180
sample=Tenors_Solo_Drum_1_HotRods_Rim_Hit_P_D4_RR2.opus
</region>

<region>
hivel=103
key=F#4
lovel=78
offset=4476
sample=Tenors_Solo_Drum_2_HotRods_Muted_Hit_F_D4_RR2.opus
</region>

<region>
hivel=127
key=F#4
lovel=104
offset=3381
sample=Tenors_Solo_Drum_2_HotRods_Muted_Hit_FF_D4_RR2.opus
</region>

<region>
hivel=77
key=F#4
lovel=52
offset=4148
sample=Tenors_Solo_Drum_2_HotRods_Muted_Hit_MF_D4_RR2.opus
</region>

<region>
hivel=51
key=F#4
lovel=26
offset=5062
sample=Tenors_Solo_Drum_2_HotRods_Muted_Hit_MP_D4_RR2.opus
</region>

<region>
hivel=25
key=F#4
lovel=0
offset=3469
sample=Tenors_Solo_Drum_2_HotRods_Muted_Hit_P_D4_RR2.opus
</region>

<region>
hivel=103
key=F#5
lovel=78
offset=3226
sample=Tenors_Solo_Drum_2_HotRods_Rim_Hit_F_D4_RR2.opus
</region>

<region>
hivel=127
key=F#5
lovel=104
offset=2896
sample=Tenors_Solo_Drum_2_HotRods_Rim_Hit_FF_D4_RR2.opus
</region>

<region>
hivel=77
key=F#5
lovel=52
offset=4253
sample=Tenors_Solo_Drum_2_HotRods_Rim_Hit_MF_D4_RR2.opus
</region>

<region>
hivel=51
key=F#5
lovel=26
offset=4989
sample=Tenors_Solo_Drum_2_HotRods_Rim_Hit_MP_D4_RR2.opus
</region>

<region>
hivel=25
key=F#5
lovel=0
offset=2703
sample=Tenors_Solo_Drum_2_HotRods_Rim_Hit_P_D4_RR2.opus
</region>

<region>
hivel=103
key=F4
lovel=78
offset=3620
sample=Tenors_Solo_Drum_3_HotRods_Muted_Hit_F_D4_RR2.opus
</region>

<region>
hivel=127
key=F4
lovel=104
offset=727
sample=Tenors_Solo_Drum_3_HotRods_Muted_Hit_FF_D4_RR2.opus
</region>

<region>
hivel=77
key=F4
lovel=52
offset=5080
sample=Tenors_Solo_Drum_3_HotRods_Muted_Hit_MF_D4_RR2.opus
</region>

<region>
hivel=51
key=F4
lovel=26
offset=3599
sample=Tenors_Solo_Drum_3_HotRods_Muted_Hit_MP_D4_RR2.opus
</region>

<region>
hivel=25
key=F4
lovel=0
offset=5240
sample=Tenors_Solo_Drum_3_HotRods_Muted_Hit_P_D4_RR2.opus
</region>

<region>
hivel=103
key=F5
lovel=78
offset=3638
sample=Tenors_Solo_Drum_3_HotRods_Rim_Hit_F_D4_RR2.opus
</region>

<region>
hivel=127
key=F5
lovel=104
offset=5418
sample=Tenors_Solo_Drum_3_HotRods_Rim_Hit_FF_D4_RR2.opus
</region>

<region>
hivel=77
key=F5
lovel=52
offset=3371
sample=Tenors_Solo_Drum_3_HotRods_Rim_Hit_MF_D4_RR2.opus
</region>

<region>
hivel=51
key=F5
lovel=26
offset=2780
sample=Tenors_Solo_Drum_3_HotRods_Rim_Hit_MP_D4_RR2.opus
</region>

<region>
hivel=25
key=F5
lovel=0
offset=3716
sample=Tenors_Solo_Drum_3_HotRods_Rim_Hit_P_D4_RR2.opus
</region>

<region>
hivel=103
key=E4
lovel=78
offset=3824
sample=Tenors_Solo_Drum_4_HotRods_Muted_Hit_F_D4_RR2.opus
</region>

<region>
hivel=127
key=E4
lovel=104
offset=5016
sample=Tenors_Solo_Drum_4_HotRods_Muted_Hit_FF_D4_RR2.opus
</region>

<region>
hivel=77
key=E4
lovel=52
offset=4425
sample=Tenors_Solo_Drum_4_HotRods_Muted_Hit_MF_D4_RR2.opus
</region>

<region>
hivel=51
key=E4
lovel=26
offset=5073
sample=Tenors_Solo_Drum_4_HotRods_Muted_Hit_MP_D4_RR2.opus
</region>

<region>
hivel=25
key=E4
lovel=0
offset=4969
sample=Tenors_Solo_Drum_4_HotRods_Muted_Hit_P_D4_RR2.opus
</region>

<region>
hivel=103
key=E5
lovel=78
offset=2297
sample=Tenors_Solo_Drum_4_HotRods_Rim_Hit_F_D4_RR2.opus
</region>

<region>
hivel=127
key=E5
lovel=104
offset=3790
sample=Tenors_Solo_Drum_4_HotRods_Rim_Hit_FF_D4_RR2.opus
</region>

<region>
hivel=77
key=E5
lovel=52
offset=2986
sample=Tenors_Solo_Drum_4_HotRods_Rim_Hit_MF_D4_RR2.opus
</region>

<region>
hivel=51
key=E5
lovel=26
offset=3996
sample=Tenors_Solo_Drum_4_HotRods_Rim_Hit_MP_D4_RR2.opus
</region>

<region>
hivel=25
key=E5
lovel=0
offset=2108
sample=Tenors_Solo_Drum_4_HotRods_Rim_Hit_P_D4_RR2.opus
</region>

<region>
hivel=103
key=D#4
lovel=78
offset=5335
sample=Tenors_Solo_Drum_5_HotRods_Muted_Hit_F_D4_RR2.opus
</region>

<region>
hivel=127
key=D#4
lovel=104
offset=3350
sample=Tenors_Solo_Drum_5_HotRods_Muted_Hit_FF_D4_RR2.opus
</region>

<region>
hivel=77
key=D#4
lovel=52
offset=4821
sample=Tenors_Solo_Drum_5_HotRods_Muted_Hit_MF_D4_RR2.opus
</region>

<region>
hivel=51
key=D#4
lovel=26
offset=5093
sample=Tenors_Solo_Drum_5_HotRods_Muted_Hit_MP_D4_RR2.opus
</region>

<region>
hivel=25
key=D#4
lovel=0
offset=5724
sample=Tenors_Solo_Drum_5_HotRods_Muted_Hit_P_D4_RR2.opus
</region>

<region>
hivel=103
key=D#5
lovel=78
offset=6054
sample=Tenors_Solo_Drum_5_HotRods_Rim_Hit_F_D4_RR2.opus
</region>

<region>
hivel=127
key=D#5
lovel=104
offset=4682
sample=Tenors_Solo_Drum_5_HotRods_Rim_Hit_FF_D4_RR2.opus
</region>

<region>
hivel=77
key=D#5
lovel=52
offset=4721
sample=Tenors_Solo_Drum_5_HotRods_Rim_Hit_MF_D4_RR2.opus
</region>

<region>
hivel=51
key=D#5
lovel=26
offset=4281
sample=Tenors_Solo_Drum_5_HotRods_Rim_Hit_MP_D4_RR2.opus
</region>

<region>
hivel=25
key=D#5
lovel=0
offset=4226
sample=Tenors_Solo_Drum_5_HotRods_Rim_Hit_P_D4_RR2.opus
</region>

<region>
hivel=103
key=D4
lovel=78
offset=4821
sample=Tenors_Solo_Drum_6_HotRods_Muted_Hit_F_D4_RR2.opus
</region>

<region>
hivel=127
key=D4
lovel=104
offset=3878
sample=Tenors_Solo_Drum_6_HotRods_Muted_Hit_FF_D4_RR2.opus
</region>

<region>
hivel=77
key=D4
lovel=52
offset=5758
sample=Tenors_Solo_Drum_6_HotRods_Muted_Hit_MF_D4_RR2.opus
</region>

<region>
hivel=51
key=D4
lovel=26
offset=4451
sample=Tenors_Solo_Drum_6_HotRods_Muted_Hit_MP_D4_RR2.opus
</region>

<region>
hivel=25
key=D4
lovel=0
offset=5744
sample=Tenors_Solo_Drum_6_HotRods_Muted_Hit_P_D4_RR2.opus
</region>

<region>
hivel=103
key=D5
lovel=78
offset=3698
sample=Tenors_Solo_Drum_6_HotRods_Rim_Hit_F_D4_RR2.opus
</region>

<region>
hivel=127
key=D5
lovel=104
offset=2875
sample=Tenors_Solo_Drum_6_HotRods_Rim_Hit_FF_D4_RR2.opus
</region>

<region>
hivel=77
key=D5
lovel=52
offset=3776
sample=Tenors_Solo_Drum_6_HotRods_Rim_Hit_MF_D4_RR2.opus
</region>

<region>
hivel=51
key=D5
lovel=26
offset=2764
sample=Tenors_Solo_Drum_6_HotRods_Rim_Hit_MP_D4_RR2.opus
</region>

<region>
hivel=25
key=D5
lovel=0
offset=4297
sample=Tenors_Solo_Drum_6_HotRods_Rim_Hit_P_D4_RR2.opus
</region>
</group>

<group>
color=green
group_label=Alt_Hits_RR4
seq_length=2
seq_position=2

<region>
hivel=103
key=G4
lovel=78
offset=5268
sample=Tenors_Solo_Drum_1_HotRods_Muted_Hit_F_D4_RR4.opus
</region>

<region>
hivel=127
key=G4
lovel=104
offset=1205
sample=Tenors_Solo_Drum_1_HotRods_Muted_Hit_FF_D4_RR4.opus
</region>

<region>
hivel=77
key=G4
lovel=52
offset=4836
sample=Tenors_Solo_Drum_1_HotRods_Muted_Hit_MF_D4_RR4.opus
</region>

<region>
hivel=51
key=G4
lovel=26
offset=5372
sample=Tenors_Solo_Drum_1_HotRods_Muted_Hit_MP_D4_RR4.opus
</region>

<region>
hivel=25
key=G4
lovel=0
offset=5307
sample=Tenors_Solo_Drum_1_HotRods_Muted_Hit_P_D4_RR4.opus
</region>

<region>
hivel=103
key=G5
lovel=78
offset=5062
sample=Tenors_Solo_Drum_1_HotRods_Rim_Hit_F_D4_RR4.opus
</region>

<region>
hivel=127
key=G5
lovel=104
offset=5096
sample=Tenors_Solo_Drum_1_HotRods_Rim_Hit_FF_D4_RR4.opus
</region>

<region>
hivel=77
key=G5
lovel=52
offset=4907
sample=Tenors_Solo_Drum_1_HotRods_Rim_Hit_MF_D4_RR4.opus
</region>

<region>
hivel=51
key=G5
lovel=26
offset=5096
sample=Tenors_Solo_Drum_1_HotRods_Rim_Hit_MP_D4_RR4.opus
</region>

<region>
hivel=25
key=G5
lovel=0
offset=5165
sample=Tenors_Solo_Drum_1_HotRods_Rim_Hit_P_D4_RR4.opus
</region>

<region>
hivel=103
key=F#4
lovel=78
offset=4485
sample=Tenors_Solo_Drum_2_HotRods_Muted_Hit_F_D4_RR4.opus
</region>

<region>
hivel=127
key=F#4
lovel=104
offset=3184
sample=Tenors_Solo_Drum_2_HotRods_Muted_Hit_FF_D4_RR4.opus
</region>

<region>
hivel=77
key=F#4
lovel=52
offset=4202
sample=Tenors_Solo_Drum_2_HotRods_Muted_Hit_MF_D4_RR4.opus
</region>

<region>
hivel=51
key=F#4
lovel=26
offset=5544
sample=Tenors_Solo_Drum_2_HotRods_Muted_Hit_MP_D4_RR4.opus
</region>

<region>
hivel=25
key=F#4
lovel=0
offset=3170
sample=Tenors_Solo_Drum_2_HotRods_Muted_Hit_P_D4_RR4.opus
</region>

<region>
hivel=103
key=F#5
lovel=78
offset=4699
sample=Tenors_Solo_Drum_2_HotRods_Rim_Hit_F_D4_RR4.opus
</region>

<region>
hivel=127
key=F#5
lovel=104
offset=4065
sample=Tenors_Solo_Drum_2_HotRods_Rim_Hit_FF_D4_RR4.opus
</region>

<region>
hivel=77
key=F#5
lovel=52
offset=4075
sample=Tenors_Solo_Drum_2_HotRods_Rim_Hit_MF_D4_RR4.opus
</region>

<region>
hivel=51
key=F#5
lovel=26
offset=4440
sample=Tenors_Solo_Drum_2_HotRods_Rim_Hit_MP_D4_RR4.opus
</region>

<region>
hivel=25
key=F#5
lovel=0
offset=3190
sample=Tenors_Solo_Drum_2_HotRods_Rim_Hit_P_D4_RR4.opus
</region>

<region>
hivel=103
key=F4
lovel=78
offset=4354
sample=Tenors_Solo_Drum_3_HotRods_Muted_Hit_F_D4_RR4.opus
</region>

<region>
hivel=127
key=F4
lovel=104
offset=720
sample=Tenors_Solo_Drum_3_HotRods_Muted_Hit_FF_D4_RR4.opus
</region>

<region>
hivel=77
key=F4
lovel=52
offset=4826
sample=Tenors_Solo_Drum_3_HotRods_Muted_Hit_MF_D4_RR4.opus
</region>

<region>
hivel=51
key=F4
lovel=26
offset=4193
sample=Tenors_Solo_Drum_3_HotRods_Muted_Hit_MP_D4_RR4.opus
</region>

<region>
hivel=25
key=F4
lovel=0
offset=4841
sample=Tenors_Solo_Drum_3_HotRods_Muted_Hit_P_D4_RR4.opus
</region>

<region>
hivel=103
key=F5
lovel=78
offset=4529
sample=Tenors_Solo_Drum_3_HotRods_Rim_Hit_F_D4_RR4.opus
</region>

<region>
hivel=127
key=F5
lovel=104
offset=5409
sample=Tenors_Solo_Drum_3_HotRods_Rim_Hit_FF_D4_RR4.opus
</region>

<region>
hivel=77
key=F5
lovel=52
offset=4306
sample=Tenors_Solo_Drum_3_HotRods_Rim_Hit_MF_D4_RR4.opus
</region>

<region>
hivel=51
key=F5
lovel=26
offset=4853
sample=Tenors_Solo_Drum_3_HotRods_Rim_Hit_MP_D4_RR4.opus
</region>

<region>
hivel=25
key=F5
lovel=0
offset=5445
sample=Tenors_Solo_Drum_3_HotRods_Rim_Hit_P_D4_RR4.opus
</region>

<region>
hivel=103
key=E4
lovel=78
offset=2185
sample=Tenors_Solo_Drum_4_HotRods_Muted_Hit_F_D4_RR4.opus
</region>

<region>
hivel=127
key=E4
lovel=104
offset=696
sample=Tenors_Solo_Drum_4_HotRods_Muted_Hit_FF_D4_RR4.opus
</region>

<region>
hivel=77
key=E4
lovel=52
offset=4340
sample=Tenors_Solo_Drum_4_HotRods_Muted_Hit_MF_D4_RR4.opus
</region>

<region>
hivel=51
key=E4
lovel=26
offset=4762
sample=Tenors_Solo_Drum_4_HotRods_Muted_Hit_MP_D4_RR4.opus
</region>

<region>
hivel=25
key=E4
lovel=0
offset=4784
sample=Tenors_Solo_Drum_4_HotRods_Muted_Hit_P_D4_RR4.opus
</region>

<region>
hivel=103
key=E5
lovel=78
offset=4003
sample=Tenors_Solo_Drum_4_HotRods_Rim_Hit_F_D4_RR4.opus
</region>

<region>
hivel=127
key=E5
lovel=104
offset=4366
sample=Tenors_Solo_Drum_4_HotRods_Rim_Hit_FF_D4_RR4.opus
</region>

<region>
hivel=77
key=E5
lovel=52
offset=3366
sample=Tenors_Solo_Drum_4_HotRods_Rim_Hit_MF_D4_RR4.opus
</region>

<region>
hivel=51
key=E5
lovel=26
offset=5950
sample=Tenors_Solo_Drum_4_HotRods_Rim_Hit_MP_D4_RR4.opus
</region>

<region>
hivel=25
key=E5
lovel=0
offset=3721
sample=Tenors_Solo_Drum_4_HotRods_Rim_Hit_P_D4_RR4.opus
</region>

<region>
hivel=103
key=D#4
lovel=78
offset=4902
sample=Tenors_Solo_Drum_5_HotRods_Muted_Hit_F_D4_RR4.opus
</region>

<region>
hivel=127
key=D#4
lovel=104
offset=1537
sample=Tenors_Solo_Drum_5_HotRods_Muted_Hit_FF_D4_RR4.opus
</region>

<region>
hivel=77
key=D#4
lovel=52
offset=4236
sample=Tenors_Solo_Drum_5_HotRods_Muted_Hit_MF_D4_RR4.opus
</region>

<region>
hivel=51
key=D#4
lovel=26
offset=4707
sample=Tenors_Solo_Drum_5_HotRods_Muted_Hit_MP_D4_RR4.opus
</region>

<region>
hivel=25
key=D#4
lovel=0
offset=5499
sample=Tenors_Solo_Drum_5_HotRods_Muted_Hit_P_D4_RR4.opus
</region>

<region>
hivel=103
key=D#5
lovel=78
offset=4140
sample=Tenors_Solo_Drum_5_HotRods_Rim_Hit_F_D4_RR4.opus
</region>

<region>
hivel=127
key=D#5
lovel=104
offset=4665
sample=Tenors_Solo_Drum_5_HotRods_Rim_Hit_FF_D4_RR4.opus
</region>

<region>
hivel=77
key=D#5
lovel=52
offset=4191
sample=Tenors_Solo_Drum_5_HotRods_Rim_Hit_MF_D4_RR4.opus
</region>

<region>
hivel=51
key=D#5
lovel=26
offset=4180
sample=Tenors_Solo_Drum_5_HotRods_Rim_Hit_MP_D4_RR4.opus
</region>

<region>
hivel=25
key=D#5
lovel=0
offset=5531
sample=Tenors_Solo_Drum_5_HotRods_Rim_Hit_P_D4_RR4.opus
</region>

<region>
hivel=103
key=D4
lovel=78
offset=4200
sample=Tenors_Solo_Drum_6_HotRods_Muted_Hit_F_D4_RR4.opus
</region>

<region>
hivel=127
key=D4
lovel=104
offset=2765
sample=Tenors_Solo_Drum_6_HotRods_Muted_Hit_FF_D4_RR4.opus
</region>

<region>
hivel=77
key=D4
lovel=52
offset=5178
sample=Tenors_Solo_Drum_6_HotRods_Muted_Hit_MF_D4_RR4.opus
</region>

<region>
hivel=51
key=D4
lovel=26
offset=3216
sample=Tenors_Solo_Drum_6_HotRods_Muted_Hit_MP_D4_RR4.opus
</region>

<region>
hivel=25
key=D4
lovel=0
offset=4728
sample=Tenors_Solo_Drum_6_HotRods_Muted_Hit_P_D4_RR4.opus
</region>

<region>
hivel=103
key=D5
lovel=78
offset=3178
sample=Tenors_Solo_Drum_6_HotRods_Rim_Hit_F_D4_RR4.opus
</region>

<region>
hivel=127
key=D5
lovel=104
offset=3251
sample=Tenors_Solo_Drum_6_HotRods_Rim_Hit_FF_D4_RR4.opus
</region>

<region>
hivel=77
key=D5
lovel=52
offset=4143
sample=Tenors_Solo_Drum_6_HotRods_Rim_Hit_MF_D4_RR4.opus
</region>

<region>
hivel=51
key=D5
lovel=26
offset=3637
sample=Tenors_Solo_Drum_6_HotRods_Rim_Hit_MP_D4_RR4.opus
</region>

<region>
hivel=25
key=D5
lovel=0
offset=5924
sample=Tenors_Solo_Drum_6_HotRods_Rim_Hit_P_D4_RR4.opus
</region>
</group>